<svg xmlns="http://www.w3.org/2000/svg" viewBox="0 0 1200 720" role="img" aria-label="Illustration av Norrköping, pubbord och ölglas">
  <defs>
    <linearGradient id="sky" x1="0" x2="1" y1="0" y2="1">
      <stop offset="0" stop-color="#f8f4e8"/>
      <stop offset="1" stop-color="#d8eadc"/>
    </linearGradient>
  </defs>
  <rect width="1200" height="720" fill="url(#sky)"/>
  <path d="M0 510 C180 450 340 540 520 490 C690 445 820 500 990 455 C1075 432 1145 438 1200 456 L1200 720 L0 720 Z" fill="#276749" opacity=".18"/>
  <path d="M70 520 L180 440 L300 520 Z M230 515 L390 395 L550 515 Z M505 520 L650 410 L795 520 Z M755 515 L915 390 L1080 515 Z" fill="#17211b" opacity=".88"/>
  <rect x="110" y="520" width="980" height="42" rx="8" fill="#b45f32"/>
  <rect x="145" y="562" width="55" height="110" rx="8" fill="#6f3922"/>
  <rect x="985" y="562" width="55" height="110" rx="8" fill="#6f3922"/>
  <rect x="255" y="245" width="250" height="170" rx="30" fill="#ffffff" opacity=".9"/>
  <path d="M310 415 L450 415 L430 610 C425 650 335 650 330 610 Z" fill="#f2b84b"/>
  <path d="M335 285 L425 285 L450 415 L310 415 Z" fill="#fff8dc"/>
  <circle cx="335" cy="275" r="35" fill="#fff8dc"/>
  <circle cx="390" cy="258" r="42" fill="#fff8dc"/>
  <circle cx="440" cy="285" r="30" fill="#fff8dc"/>
  <path d="M455 455 C545 455 545 575 456 575" fill="none" stroke="#fff8dc" stroke-width="34" stroke-linecap="round"/>
  <rect x="610" y="230" width="330" height="250" rx="24" fill="#ffffff" opacity=".92"/>
  <path d="M660 305 H890 M660 365 H850 M660 425 H820" stroke="#17211b" stroke-width="28" stroke-linecap="round" opacity=".82"/>
  <circle cx="635" cy="305" r="12" fill="#f2b84b"/>
  <circle cx="635" cy="365" r="12" fill="#f2b84b"/>
  <circle cx="635" cy="425" r="12" fill="#f2b84b"/>
</svg>
